<?xml version="1.0" encoding="UTF-8" standalone="no"?>
<svg width="218px" height="93px" viewBox="0 0 218 93" version="1.1" xmlns="http://www.w3.org/2000/svg" xmlns:xlink="http://www.w3.org/1999/xlink">
    <!-- Generator: Sketch 39.1 (31720) - http://www.bohemiancoding.com/sketch -->
    <title>Group 5</title>
    <desc>Created with Sketch.</desc>
    <defs></defs>
    <g id="RDC" stroke="none" stroke-width="1" fill="none" fill-rule="evenodd">
        <g id="Group" transform="translate(-67.000000, -242.000000)">
            <g id="slide1" transform="translate(0.000000, 27.000000)">
                <g id="Group-5" transform="translate(77.000000, 215.000000)">
                    <path d="M38.8071268,85.1374344 C69.0731489,62.2077089 128.508729,62.2077089 158.774751,85.1374344 L165.974343,82.0035363 C129.009604,53.9988212 69.0256367,53.9988212 32,82.0035363 L38.8071268,85.1374344 Z M63.0884241,93 C79.8961144,80.2663899 117.573188,80.2663899 134.380879,93 L141.500722,90.5193308 C117.994314,72.7107311 79.8116265,72.7107311 56.2443216,90.5193308 L63.0884241,93 Z" id="Shape" fill="#BBBBBB"></path>
                    <path d="M6.95378857,50 L-1.42108547e-14,50 L-1.42108547e-14,0 L6.95378857,0 L6.95378857,50 Z M13.9075771,49.9644886 L10.3754941,49.9644886 L10.3754941,0 L13.9075771,0 L13.9075771,49.9644886 Z M24.2830712,49.9644886 L20.8613657,49.9644886 L20.8613657,0 L24.2830712,0 L24.2830712,49.9644886 Z M41.6123538,49.9644886 L38.1906483,49.9644886 L38.1906483,0 L41.6123538,0 L41.6123538,49.9644886 Z M58.9416365,49.9644886 L52.0982255,49.9644886 L52.0982255,0 L58.9416365,0 L58.9416365,49.9644886 Z M72.8492136,49.9644886 L69.4275081,49.9644886 L69.4275081,0 L72.8492136,0 L72.8492136,49.9644886 Z M79.8030022,49.9644886 L76.3812967,49.9644886 L76.3812967,0 L79.8030022,0 L79.8030022,49.9644886 Z M86.7567907,49.9644886 L83.3350853,49.9644886 L83.3350853,0 L86.7567907,0 L86.7567907,49.9644886 Z M104.086073,49.9644886 L97.1322848,49.9644886 L97.1322848,0 L104.086073,0 L104.086073,49.9644886 Z M121.415356,49.9644886 L114.461567,49.9644886 L114.461567,0 L121.415356,0 L121.415356,49.9644886 Z M135.322933,49.9644886 L128.369145,49.9644886 L128.369145,0 L135.322933,0 L135.322933,49.9644886 Z M149.23051,49.9644886 L142.276722,49.9644886 L142.276722,0 L149.23051,0 L149.23051,49.9644886 Z M159.606004,49.9644886 L152.652216,49.9644886 L152.652216,0 L159.606004,0 L159.606004,49.9644886 Z M180.46737,49.9644886 L170.091876,49.9644886 L170.091876,0 L180.46737,0 L180.46737,49.9644886 Z M187.421159,49.9644886 L183.889076,49.9644886 L183.889076,0 L187.421159,0 L187.421159,49.9644886 Z M197.796653,50 L190.842864,50 L190.842864,0 L197.796653,0 L197.796653,50 Z" id="Shape" fill="#BBBBBB"></path>
                    <rect id="Rectangle-2" fill="#FFFFFF" x="19" y="9" width="160" height="32"></rect>
                    <text id="Scan-to-Start" dominant-baseline="middle" text-anchor="middle" style="font-family: OpenSans, Open Sans, sans-serif; font-size: 20px;  font-weight: light; font-style: normal" fill="#4A4A4A">
                        <tspan x="45%" y="30%" text-anchor="middle">Scan Printer</tspan>
                    </text>
                </g>
            </g>
        </g>
    </g>
</svg>